<?xml version="1.0" standalone="no"?>
<!DOCTYPE svg PUBLIC "-//W3C//DTD SVG 20010904//EN"
 "http://www.w3.org/TR/2001/REC-SVG-20010904/DTD/svg10.dtd">
<svg version="1.0" xmlns="http://www.w3.org/2000/svg"
 width="1704.000000pt" height="1704.000000pt" viewBox="0 0 1704.000000 1704.000000"
 preserveAspectRatio="xMidYMid meet">
<metadata>
Created by potrace 1.14, written by Peter Selinger 2001-2017
</metadata>
<g transform="translate(0.000000,1704.000000) scale(0.100000,-0.100000)"
fill="#000000" stroke="none">
<path d="M14977 11195 c-1 -2 -38 -5 -82 -9 -126 -10 -280 -41 -405 -82 -90
-29 -307 -145 -392 -209 -164 -125 -313 -303 -407 -487 -49 -98 -92 -199 -96
-228 0 -3 -3 -9 -7 -15 -8 -13 -64 -248 -73 -305 -17 -124 -20 -173 -20 -395
0 -213 5 -300 20 -385 3 -14 7 -40 10 -58 71 -432 290 -776 600 -943 33 -17
65 -35 70 -39 6 -4 42 -19 80 -34 238 -94 454 -130 770 -130 252 0 418 25 620
91 472 155 798 507 938 1013 52 185 72 359 71 610 0 294 -28 491 -96 695 -183
550 -580 836 -1248 901 -61 6 -347 13 -353 9z m241 -689 c164 -47 286 -137
377 -276 67 -101 103 -195 135 -343 30 -138 35 -197 35 -442 -1 -262 -8 -355
-46 -555 -10 -58 -27 -132 -37 -165 -17 -57 -20 -60 -77 -89 -141 -70 -281
-103 -446 -105 -224 -4 -394 66 -530 217 -84 95 -155 232 -194 378 -17 64 -19
71 -29 124 -3 19 -8 46 -11 60 -20 103 -27 502 -12 680 6 78 27 225 42 293 9
46 47 142 59 149 24 16 178 60 271 78 123 23 378 21 463 -4z"/>
<path d="M8308 11185 c-2 -2 -62 -7 -133 -10 -72 -3 -141 -8 -155 -10 -14 -2
-61 -7 -105 -10 -44 -4 -88 -9 -97 -10 -9 -2 -49 -7 -90 -10 -40 -4 -75 -8
-78 -10 -3 -2 -39 -6 -80 -10 -41 -4 -77 -8 -80 -10 -3 -2 -30 -6 -60 -10 -72
-8 -87 -13 -87 -28 0 -6 -3 -48 -6 -92 -4 -44 -10 -118 -13 -165 -3 -47 -8
-87 -9 -90 -8 -13 17 -32 140 -99 72 -39 141 -78 155 -86 38 -21 58 -55 65
-110 9 -75 8 -1896 -2 -1905 -6 -5 -81 -27 -193 -56 -139 -36 -154 -43 -145
-74 4 -15 18 -290 19 -393 l1 -57 780 2 780 3 1 35 c1 19 4 105 8 190 l7 155
-178 105 c-135 80 -181 113 -192 135 -11 23 -15 82 -15 265 l-1 235 220 -2
c200 -1 286 3 399 22 56 10 67 12 111 23 22 6 51 13 65 16 14 2 59 16 100 31
330 120 566 349 653 635 36 117 46 210 43 385 -7 317 -77 520 -236 685 -172
178 -405 269 -810 316 -52 7 -776 14 -782 9z m713 -572 c141 -52 216 -157 244
-338 8 -51 8 -297 0 -361 -12 -101 -29 -209 -40 -260 -3 -15 -17 -25 -47 -33
-76 -21 -230 -37 -348 -35 -109 2 -147 5 -245 19 l-40 7 0 499 c0 393 3 501
13 508 7 4 36 9 64 10 29 1 54 4 56 6 2 2 67 2 145 1 115 -2 153 -6 198 -23z"/>
<path d="M11378 11185 c-2 -2 -66 -6 -143 -9 -77 -4 -156 -9 -175 -11 -19 -3
-70 -7 -115 -10 -44 -3 -91 -7 -105 -9 -14 -3 -56 -7 -93 -11 -37 -3 -77 -8
-88 -10 -11 -2 -47 -6 -82 -10 -34 -3 -69 -7 -77 -10 -8 -2 -40 -6 -70 -10
-30 -3 -57 -9 -61 -13 -7 -7 -12 -67 -25 -287 l-6 -100 99 -54 c54 -30 123
-68 153 -84 30 -16 63 -36 72 -44 37 -33 39 -91 36 -1057 l-3 -939 -170 -47
-170 -46 2 -30 c1 -16 5 -108 8 -204 4 -96 9 -182 10 -190 2 -8 4 -25 4 -37
l1 -23 733 0 733 0 0 33 c1 17 4 109 8 204 l7 171 -98 57 c-144 84 -175 107
-189 140 -9 22 -13 113 -14 347 l0 318 97 -2 c54 -1 103 -5 110 -10 6 -5 23
-31 36 -57 14 -26 35 -65 47 -87 13 -21 41 -73 63 -114 22 -41 48 -87 59 -102
10 -14 18 -28 18 -30 0 -4 68 -129 157 -288 49 -87 172 -309 208 -375 18 -33
51 -91 72 -130 l38 -70 433 -3 c406 -2 432 -1 433 15 0 10 2 52 4 93 l2 74
-115 186 c-63 102 -123 199 -134 215 -10 17 -129 207 -263 424 l-244 395 82
44 c241 128 390 305 463 547 23 78 27 111 30 245 1 101 -3 186 -12 243 -76
471 -395 696 -1069 756 -86 8 -690 13 -697 6z m602 -565 c175 -32 260 -119
289 -298 14 -82 4 -342 -17 -442 -15 -73 -21 -87 -43 -97 -53 -25 -196 -40
-366 -37 -154 2 -184 4 -250 19 l-23 5 0 425 0 424 38 3 c108 9 318 8 372 -2z"/>
<path d="M1019 11125 c0 -5 -2 -18 -4 -27 -2 -9 -6 -74 -10 -145 -3 -70 -8
-153 -10 -185 l-4 -56 137 -78 c75 -42 151 -86 169 -96 17 -10 37 -33 44 -51
10 -25 13 -247 14 -1000 l2 -967 -66 -20 c-36 -10 -113 -32 -171 -47 l-105
-28 1 -70 c2 -85 15 -371 19 -394 2 -15 70 -16 758 -19 l757 -2 1 77 c0 43 2
135 5 204 l6 126 -129 78 c-185 112 -191 117 -205 150 -9 23 -12 252 -13 998
0 533 2 973 5 978 5 7 61 24 205 63 38 10 103 28 116 32 14 4 16 18 13 87 -11
237 -12 277 -13 337 l-1 65 -760 0 c-499 0 -760 -3 -761 -10z"/>
<path d="M2950 11130 c-8 -5 -14 -69 -26 -260 -3 -52 -7 -116 -8 -141 l-3 -46
101 -56 c216 -121 239 -144 238 -236 0 -33 -3 -72 -6 -88 -3 -15 -8 -48 -11
-73 -3 -25 -13 -88 -21 -140 -8 -52 -17 -112 -20 -135 -2 -22 -14 -100 -25
-172 -11 -73 -22 -145 -24 -160 -10 -76 -18 -130 -21 -147 -2 -11 -9 -56 -15
-100 -6 -45 -13 -90 -15 -101 -1 -11 -10 -69 -18 -130 -9 -60 -18 -119 -20
-130 -2 -11 -7 -45 -11 -75 -4 -30 -9 -64 -11 -74 -2 -11 -8 -54 -14 -96 -6
-42 -13 -87 -15 -101 -3 -13 -7 -44 -10 -69 -13 -106 -8 -100 -123 -171 -91
-56 -107 -69 -105 -90 3 -61 15 -184 18 -189 1 -3 6 -39 9 -80 4 -41 9 -84 11
-95 2 -11 4 -23 4 -27 1 -5 267 -8 591 -8 555 0 590 1 591 18 1 9 3 26 4 37 1
11 5 47 9 80 3 33 11 105 17 160 6 55 12 108 12 118 2 15 -29 32 -148 82 -82
34 -161 74 -175 87 -39 38 -40 63 -15 358 5 54 14 179 20 275 9 130 15 210 20
265 2 30 7 91 10 135 3 44 8 105 10 135 3 30 7 89 10 130 7 109 15 194 18 197
2 1 29 -80 61 -180 31 -100 96 -301 143 -447 47 -146 101 -314 120 -375 19
-60 41 -128 48 -150 14 -40 49 -150 190 -590 42 -132 90 -282 107 -333 l30
-93 62 6 c33 3 86 8 116 10 81 7 158 14 220 20 30 3 84 8 120 10 36 3 88 7
115 10 28 3 77 7 109 10 33 3 63 8 67 12 4 5 50 163 104 353 405 1437 503
1779 505 1755 1 -11 3 -27 4 -35 2 -8 6 -49 10 -90 3 -41 8 -86 10 -100 3 -14
7 -59 11 -100 6 -78 12 -137 20 -205 2 -22 9 -89 15 -150 6 -60 12 -121 15
-135 2 -14 7 -60 10 -102 3 -43 8 -88 10 -100 3 -21 6 -49 21 -213 3 -33 7
-73 9 -90 7 -51 18 -178 19 -210 l1 -30 -125 -32 c-257 -66 -255 -66 -254 -93
1 -36 14 -176 28 -305 2 -16 4 -47 5 -67 l1 -38 710 0 710 0 1 38 c0 20 2 44
4 53 1 9 6 59 10 110 4 52 9 97 11 101 2 3 -24 43 -58 88 -172 224 -185 250
-208 410 -6 41 -13 86 -15 100 -2 14 -7 45 -9 70 -3 25 -14 109 -25 187 -12
78 -23 161 -26 185 -3 24 -7 54 -10 67 -2 13 -7 49 -11 80 -3 31 -8 63 -9 71
-2 9 -6 43 -10 75 -4 33 -9 69 -11 79 -2 11 -8 56 -14 100 -6 45 -13 92 -15
106 -4 24 -23 166 -31 225 -2 17 -6 41 -9 55 -2 14 -7 50 -10 80 -4 30 -11 87
-16 125 -15 100 -23 166 -23 194 -1 22 7 25 99 48 55 13 109 27 120 30 11 3
32 7 48 10 l27 5 -6 197 c-7 197 -11 277 -13 296 -1 11 -1255 14 -1266 3 -7
-6 -118 -363 -151 -483 -2 -5 -57 -188 -124 -405 -67 -217 -123 -399 -124
-405 -1 -5 -14 -48 -29 -95 -14 -47 -74 -242 -133 -435 -58 -192 -108 -352
-110 -354 -8 -9 -14 9 -94 269 -44 146 -89 292 -100 325 -10 33 -71 231 -135
440 -63 209 -122 400 -130 425 -17 53 -61 194 -105 340 -17 58 -49 162 -71
231 -21 69 -39 131 -39 137 0 7 -6 13 -12 13 -43 4 -1341 3 -1348 -1z"/>
<path d="M10959 7406 c-2 -2 -44 -7 -94 -11 -49 -3 -103 -8 -120 -10 -16 -3
-61 -7 -100 -10 -67 -5 -151 -12 -244 -20 -24 -3 -45 -6 -47 -7 -1 -2 -57
-136 -124 -298 -67 -162 -127 -306 -133 -320 -5 -14 -11 -29 -13 -35 -3 -10
-137 -334 -154 -370 -5 -11 -30 -72 -56 -135 -25 -63 -52 -128 -59 -145 -8
-16 -81 -194 -164 -395 l-150 -365 -56 -35 -56 -35 5 -125 c3 -69 5 -142 5
-162 l1 -38 480 0 c450 0 480 1 481 18 0 9 2 31 4 47 6 50 15 122 21 178 3 28
7 57 9 64 2 7 -42 31 -108 58 -173 73 -174 74 -181 103 -3 18 10 73 42 165
l47 137 135 1 c74 0 240 1 369 2 l234 2 54 -164 c29 -91 55 -172 58 -182 5
-14 -15 -22 -124 -49 l-130 -32 5 -47 c2 -25 6 -59 8 -76 3 -16 7 -66 11 -110
4 -44 9 -88 11 -97 5 -17 38 -18 515 -18 280 0 509 3 510 8 0 4 2 14 3 22 2 8
7 60 11 115 4 55 9 102 11 104 2 2 -18 31 -44 65 -73 92 -83 114 -172 351 -45
121 -90 243 -101 270 -31 82 -193 521 -295 800 -53 143 -99 269 -104 280 -6
11 -48 126 -96 255 -82 225 -95 256 -105 246z m-284 -921 c48 -148 90 -283 95
-300 4 -16 15 -51 23 -77 l15 -48 -97 5 c-53 2 -154 7 -225 10 -71 3 -133 8
-137 10 -3 3 23 89 58 192 36 104 87 252 114 331 50 147 61 173 65 157 2 -6
42 -131 89 -280z"/>
<path d="M5465 7389 c-87 -7 -177 -19 -186 -25 -3 -2 -21 -6 -40 -9 -66 -11
-201 -61 -279 -103 -159 -86 -301 -217 -394 -362 -153 -238 -218 -503 -211
-860 4 -187 7 -221 26 -320 13 -70 47 -199 58 -225 84 -187 118 -243 210 -338
169 -175 418 -277 733 -302 123 -10 314 -5 403 10 17 2 48 7 70 10 62 9 229
63 303 97 302 143 527 434 603 783 7 33 13 62 14 65 16 71 27 205 28 325 1
166 -10 288 -38 415 -3 14 -7 36 -10 50 -16 86 -134 360 -156 360 -4 0 -10 8
-13 18 -9 27 -135 155 -199 201 -218 158 -569 238 -922 210z m145 -513 c272
-31 453 -264 487 -624 12 -133 4 -506 -12 -532 -2 -3 -6 -24 -8 -45 -6 -45
-12 -73 -35 -164 l-16 -64 -63 -28 c-110 -50 -207 -72 -328 -73 -174 -1 -282
40 -389 148 -96 97 -152 219 -191 410 -21 100 -28 463 -12 616 11 107 45 245
67 273 12 15 42 30 84 41 36 10 68 18 71 18 2 -1 19 4 37 9 18 5 65 12 103 15
39 4 71 7 72 8 3 2 90 -3 133 -8z"/>
<path d="M7728 7385 c-2 -2 -57 -6 -123 -10 -159 -9 -245 -16 -355 -30 -19 -3
-57 -7 -85 -10 -27 -3 -61 -8 -75 -10 -14 -3 -42 -7 -64 -10 -21 -2 -40 -6
-42 -7 -3 -4 -16 -185 -18 -252 l-1 -48 121 -67 c67 -36 128 -75 135 -86 11
-16 15 -159 17 -771 l2 -751 -47 -11 c-27 -7 -55 -14 -64 -16 -9 -2 -48 -14
-88 -26 l-71 -21 5 -37 c6 -42 13 -189 14 -274 l1 -58 565 0 565 0 1 33 c1 17
2 55 4 82 10 185 8 215 -15 215 -5 0 -48 24 -97 54 -70 43 -90 61 -100 87 -7
22 -12 119 -12 270 l-1 236 67 -2 c38 -2 73 -3 80 -4 11 -1 48 -59 115 -181
171 -310 414 -750 425 -768 l14 -22 331 2 332 3 2 68 2 69 -100 161 c-55 89
-110 178 -123 197 -12 19 -89 143 -170 275 -81 132 -155 252 -166 267 -10 15
-19 31 -19 35 0 4 22 19 48 32 201 101 329 258 377 463 15 63 16 311 2 367
-19 75 -41 140 -59 176 -73 145 -214 253 -412 314 -92 29 -124 34 -292 55 -92
12 -616 20 -626 11z m514 -439 c157 -37 211 -124 210 -338 0 -108 -4 -145 -23
-245 -10 -53 -12 -54 -79 -70 -70 -16 -237 -21 -357 -9 l-83 7 0 329 0 329 33
3 c86 8 252 5 299 -6z"/>
<path d="M999 7346 c-4 -3 -8 -52 -13 -162 -4 -71 -9 -141 -12 -155 -4 -25 4
-31 94 -82 53 -31 113 -69 132 -85 32 -28 34 -33 33 -88 0 -33 -13 -138 -27
-234 -33 -215 -33 -214 -41 -275 -3 -27 -8 -57 -10 -65 -2 -8 -6 -35 -9 -60
-3 -25 -8 -54 -10 -65 -2 -11 -7 -45 -11 -75 -4 -30 -9 -62 -10 -70 -2 -8 -6
-37 -9 -65 -7 -50 -43 -290 -51 -331 -2 -12 -7 -48 -11 -80 -3 -33 -8 -66 -10
-74 -1 -8 -3 -25 -3 -37 -1 -17 -22 -35 -87 -75 l-86 -52 6 -66 c4 -36 9 -87
13 -113 8 -66 10 -87 12 -119 l1 -28 455 0 c250 0 456 3 456 8 2 9 4 32 13
109 10 94 16 144 22 180 4 30 2 34 -33 49 -21 10 -40 18 -43 19 -3 0 -26 10
-51 22 -26 11 -63 27 -82 34 -54 19 -66 50 -61 154 2 50 6 108 8 130 3 22 8
87 11 145 4 58 8 121 10 140 2 19 6 80 10 135 3 55 8 111 10 125 2 14 7 77 11
140 3 63 8 124 9 135 1 11 3 34 4 50 2 20 20 -26 57 -140 30 -93 79 -244 109
-335 29 -91 74 -232 100 -315 26 -82 49 -157 52 -165 4 -8 7 -17 8 -20 0 -3
11 -36 24 -75 12 -38 61 -188 107 -333 l85 -263 57 6 c31 3 82 8 112 10 30 2
84 7 120 10 124 12 155 14 230 20 41 4 82 8 91 11 10 3 26 43 48 122 38 135
208 737 306 1082 37 129 71 249 76 265 4 17 16 62 27 100 l19 70 7 -50 c3 -27
9 -72 11 -100 8 -79 16 -147 20 -185 2 -19 7 -64 10 -100 3 -36 8 -81 10 -100
2 -19 7 -62 10 -95 7 -77 15 -160 20 -205 3 -19 7 -66 11 -105 3 -38 7 -80 9
-92 2 -12 7 -58 11 -102 l6 -80 -38 -9 c-262 -66 -269 -69 -259 -102 2 -8 7
-37 9 -65 12 -116 22 -209 25 -227 0 -5 246 -8 546 -8 300 0 544 3 543 8 -2 5
12 186 17 227 1 9 -81 123 -98 136 -4 3 -23 30 -43 60 -44 69 -50 91 -74 269
-7 47 -14 99 -16 115 -2 17 -6 48 -9 70 -3 22 -12 85 -20 140 -8 55 -17 123
-20 150 -3 28 -8 61 -10 75 -4 32 -15 107 -20 140 -4 24 -8 60 -21 153 -3 23
-10 71 -15 107 -6 35 -12 84 -15 108 -2 24 -8 72 -13 106 -5 33 -12 81 -15
106 l-6 46 116 29 116 28 -7 181 c-4 100 -7 186 -8 192 -1 14 -962 13 -975 -1
-6 -5 -37 -102 -71 -215 -34 -113 -70 -232 -81 -265 -21 -64 -116 -380 -130
-430 -5 -16 -30 -97 -55 -180 -26 -82 -51 -166 -57 -185 -5 -19 -32 -107 -60
-195 -27 -88 -51 -168 -54 -179 -2 -10 -6 -21 -8 -24 -6 -6 -5 -10 -46 128
-59 195 -72 235 -80 260 -5 14 -22 70 -39 125 -41 137 -233 761 -334 1090
l-25 80 -521 1 c-287 0 -521 0 -522 0z"/>
<path d="M11602 7341 c-5 -3 -10 -33 -11 -66 -2 -33 -4 -89 -6 -124 -3 -63 -3
-63 56 -146 50 -70 70 -112 125 -262 36 -98 79 -214 96 -258 17 -44 31 -84 33
-90 1 -5 5 -17 8 -25 8 -19 268 -724 432 -1172 136 -370 140 -379 158 -373 6
2 48 6 92 9 151 12 220 17 250 21 46 6 196 18 232 19 32 1 34 4 69 91 20 50
42 104 49 120 8 17 62 149 121 295 59 146 137 339 174 430 37 91 106 262 154
380 48 118 94 229 102 247 7 17 14 34 14 38 0 3 11 31 25 61 14 30 25 57 25
60 0 3 7 20 15 37 8 18 28 68 45 112 27 68 105 189 155 239 23 22 42 62 39 81
-1 11 -5 68 -9 126 -3 58 -8 114 -10 125 -2 10 -4 22 -4 25 -1 7 -937 6 -944
-1 -5 -6 -14 -88 -23 -222 -6 -90 -5 -98 12 -104 79 -27 240 -95 255 -108 24
-20 24 -56 0 -126 -11 -30 -58 -167 -106 -305 -48 -137 -91 -261 -95 -275 -28
-86 -200 -581 -211 -608 l-14 -34 -32 94 c-18 51 -57 165 -88 253 -31 88 -71
203 -90 255 -18 52 -85 244 -149 426 -64 182 -116 336 -116 341 0 5 55 23 123
40 l122 30 0 39 c0 21 -4 71 -8 109 -4 39 -10 97 -13 130 -4 33 -8 62 -11 65
-6 7 -1031 8 -1041 1z"/>
<path d="M14219 7281 c0 -37 -2 -118 -5 -182 l-4 -117 89 -52 c51 -30 93 -62
99 -76 8 -15 12 -179 12 -486 1 -255 3 -481 5 -503 2 -22 6 -69 9 -105 4 -36
9 -77 11 -90 3 -14 8 -41 11 -60 31 -202 133 -411 255 -525 174 -164 397 -237
724 -239 267 -1 411 28 597 119 330 163 534 503 565 945 4 52 7 296 7 543 l1
447 55 15 c138 39 135 37 133 70 -8 162 -16 333 -15 346 0 13 -59 15 -544 15
l-544 0 -1 -55 c-1 -65 -7 -179 -13 -234 -4 -44 -2 -46 146 -127 75 -41 100
-60 110 -84 10 -24 13 -140 12 -516 0 -513 -6 -657 -28 -765 -24 -114 -30
-127 -67 -151 -76 -48 -156 -68 -269 -69 -118 0 -139 4 -213 38 -151 71 -238
252 -273 572 -10 89 -12 928 -2 941 4 6 73 28 152 50 l144 39 -5 85 c-5 102
-11 204 -12 245 l-1 31 -570 0 -570 0 -1 -65z"/>
</g>
</svg>
